{"title":"A Walk Among The Tombstones 2014 FIRST HDCAM ENGLISH x264 Pimp40","uid":11092153,"size":1538678024,"categoryP":"video","categoryS":"movies","magnet":"?xt=urn:btih:9b81fed054cf7bb924e566d3a7e564e9b5c45ca4&amp;dn=A+Walk+Among+The+Tombstones+2014+FIRST+HDCAM+ENGLISH+x264+Pimp40&amp;tr=udp%3A%2F%2Ftracker.openbittorrent.com%3A80&amp;tr=udp%3A%2F%2Fopen.demonii.com%3A1337&amp;tr=udp%3A%2F%2Ftracker.coppersurfer.tk%3A6969&amp;tr=udp%3A%2F%2Fexodus.desync.com%3A6969","seeders":0,"leechers":0,"uploader":"shawnmurthy","files":-1,"time":1411539308,"description":"AUDIO IS ENGLISH...HAS SPANISH SUBS....DID THE USUAL WORKED ON THE CONTRAST, BRIGHTNESS, AND STOPPED THE FLICKERING....AUDIO IS OK...TWEAKED IT A BIT....COULD NOT REMOVE THE SUBS....WAIT FOR BETTER ......ENJOY.....PIMP4003\n &lt;a href=&quot;\nhttp://i.imgur.com/fW5GLTr.jpg&quot; rel=&quot;nofollow&quot; target=&quot;_NEW&quot;&gt;\nhttp://i.imgur.com/fW5GLTr.jpg&lt;/a&gt;\n &lt;a href=&quot;\nhttp://i.imgur.com/gi4TtW7.jpg&quot; rel=&quot;nofollow&quot; target=&quot;_NEW&quot;&gt;\nhttp://i.imgur.com/gi4TtW7.jpg&lt;/a&gt;\n &lt;a href=&quot;\nhttp://i.imgur.com/vjVMSY8.png&quot; rel=&quot;nofollow&quot; target=&quot;_NEW&quot;&gt;\nhttp://i.imgur.com/vjVMSY8.png&lt;/a&gt;\n &lt;a href=&quot;\nhttp://i.imgur.com/Sy5BH8l.png&quot; rel=&quot;nofollow&quot; target=&quot;_NEW&quot;&gt;\nhttp://i.imgur.com/Sy5BH8l.png&lt;/a&gt;\n\nCLICK BELOW LINK FOR SCREENSHOTS AND SAMPLE\n\nA Walk Among The Tombstones 2014 FIRST HDCAM ENGLISH x264 Pimp4003\n\nENJOY\n\nPIMP4003\n\nVideo\nID                                       : 0\nFormat                                   : MPEG-4 Visual\nFormat profile                           : Simple@L1\nFormat settings, BVOP                    : No\nFormat settings, QPel                    : No\nFormat settings, GMC                     : No warppoints\nFormat settings, Matrix                  : Default (H.263)\nCodec ID                                 : XVID\nCodec ID/Hint                            : XviD\nDuration                                 : 1h 49mn\nBit rate                                 : 1 696 Kbps\nWidth                                    : 720 pixels\nHeight                                   : 374 pixels\nDisplay aspect ratio                     : 2.25:1\nFrame rate                               : 29.970 fps\nColor space                              : YUV\nChroma subsampling                       : 4:2:0\nBit depth                                : 8 bits\nScan type                                : Progressive\nCompression mode                         : Lossy\nBits/(Pixel*Frame)                       : 0.210\nStream size                              : 1.30 GiB (91%)\nWriting library                          : Lavc54.59.100\n\nAudio\nID                                       : 1\nFormat                                   : MPEG Audio\nFormat version                           : Version 1\nFormat profile                           : Layer 3\nMode                                     : Joint stereo\nMode extension                           : MS Stereo\nCodec ID                                 : 55\nCodec ID/Hint                            : MP3\nDuration                                 : 1h 49mn\nBit rate mode                            : Constant\nBit rate                                 : 160 Kbps\nChannel(s)                               : 2 channels\nSampling rate                            : 48.0 KHz\nCompression mode                         : Lossy\nStream size                              : 125 MiB (9%)\nAlignment                                : Aligned on interleaves\nInterleave, duration                     : 24 ms (0.72 video frame)\n\n\n","torrent":{"xt":"urn:btih:9b81fed054cf7bb924e566d3a7e564e9b5c45ca4","amp;dn":"A+Walk+Among+The+Tombstones+2014+FIRST+HDCAM+ENGLISH+x264+Pimp40","amp;tr":["udp%3A%2F%2Ftracker.openbittorrent.com%3A80","udp%3A%2F%2Fopen.demonii.com%3A1337","udp%3A%2F%2Ftracker.coppersurfer.tk%3A6969","udp%3A%2F%2Fexodus.desync.com%3A6969"],"infoHash":"9b81fed054cf7bb924e566d3a7e564e9b5c45ca4","infoHashBuffer":{"type":"Buffer","data":[155,129,254,208,84,207,123,185,36,229,102,211,167,229,100,233,181,196,92,164]},"announce":[],"urlList":[]}}